<?xml version="1.0" encoding="utf-8"?>
<!-- Generator: Adobe Illustrator 16.0.4, SVG Export Plug-In . SVG Version: 6.00 Build 0)  -->
<!DOCTYPE svg PUBLIC "-//W3C//DTD SVG 1.1//EN" "http://www.w3.org/Graphics/SVG/1.1/DTD/svg11.dtd">
<svg version="1.1" id="Ebene_1" xmlns="http://www.w3.org/2000/svg" xmlns:xlink="http://www.w3.org/1999/xlink" x="0px" y="0px"
	 width="1170px" height="445px" viewBox="0 0 1170 445" enable-background="new 0 0 1170 445" xml:space="preserve">
<g id="path7709">
	<path d="M598.339,10.894c-117.197,0-212.389,94.547-212.389,211.294c0,117.195,95.19,211.919,212.389,211.919
		c117.197,0,212.231-94.725,212.231-211.919C810.57,105.44,715.536,10.894,598.339,10.894z M598.339,31.083
		c105.93,0,192.044,85.626,192.044,191.104c0,105.929-86.114,191.572-192.044,191.572c-105.929,0-192.042-85.643-192.042-191.572
		C406.296,116.709,492.411,31.083,598.339,31.083z"/>
	<path d="M598.339,435.178c-56.997,0-110.588-22.135-150.9-62.324c-40.343-40.219-62.56-93.729-62.56-150.666
		c0-56.735,22.217-110.072,62.562-150.187c40.325-40.097,93.915-62.179,150.898-62.179c56.976,0,110.538,22.082,150.821,62.179
		c40.292,40.105,62.482,93.443,62.482,150.187c0,56.947-22.189,110.455-62.481,150.666
		C708.89,413.045,655.326,435.178,598.339,435.178z M598.339,11.965c-56.414,0-109.467,21.862-149.388,61.556
		c-39.936,39.71-61.93,92.507-61.93,148.667c0,56.365,21.994,109.333,61.93,149.148c39.908,39.789,92.962,61.699,149.387,61.699
		c56.416,0,109.44-21.91,149.307-61.699c39.887-39.805,61.854-92.773,61.854-149.148c0-56.17-21.965-108.968-61.852-148.667
		C707.769,33.826,654.743,11.965,598.339,11.965z M598.339,414.832c-51.546,0-100.023-20.021-136.5-56.375
		c-36.508-36.385-56.613-84.779-56.613-136.269c0-105.966,86.631-192.176,193.114-192.176c106.484,0,193.115,86.21,193.115,192.176
		c0,51.49-20.106,99.884-56.613,136.269C698.363,394.811,649.886,414.832,598.339,414.832z M598.339,32.155
		c-105.302,0-190.97,85.248-190.97,190.032c0,50.917,19.881,98.772,55.982,134.75c36.073,35.951,84.012,55.752,134.988,55.752
		c50.977,0,98.916-19.801,134.988-55.752c36.102-35.979,55.982-83.834,55.982-134.75C789.311,117.403,703.642,32.155,598.339,32.155
		z"/>
</g>
<g id="g12754">
	<path id="path6143" d="M441.919,240.713h26.146c4.058,0,6.308-2.705,6.308-6.312c0-4.057-2.252-6.764-6.308-6.764h-26.146V240.713
		L441.919,240.713z M441.919,216.821h25.245c3.607,0,5.858-2.253,5.858-5.86c0-3.155-2.253-5.857-5.858-5.857h-25.245V216.821
		L441.919,216.821z M429.748,251.529v-56.795h39.216c9.015,0,16.227,7.212,16.227,16.226c0,4.058-1.352,8.114-4.507,10.82
		c3.607,3.157,5.859,7.663,5.859,12.62c0,9.018-7.663,17.129-16.677,17.129H429.748L429.748,251.529z"/>
</g>
<path id="path6139" d="M717.29,194.797v56.658h11.738V228.92h12.208l16.591,22.533h14.556l-17.216-22.85
	c8.11-0.902,13.929-8.181,13.929-16.747c0-9.466-8.046-17.061-17.062-17.061L717.29,194.797L717.29,194.797z M730.906,206.849
	l19.093,0.157c0,0,5.271,0.396,5.321,5.007c0.051,4.61-5.947,4.538-5.947,4.538h-18.469L730.906,206.849L730.906,206.849z"/>
<polygon id="polygon6135" points="618.617,194.734 598.333,221.779 577.598,194.734 563.173,194.734 592.022,231.695 
	592.022,251.529 604.192,251.529 604.192,231.695 633.041,194.734 "/>
<polygon id="polygon6137" points="695.697,205.101 695.697,194.734 644.31,194.734 644.31,251.529 695.697,251.529 695.697,240.713 
	656.48,240.713 656.48,227.639 694.344,227.639 694.344,216.821 656.48,216.821 656.48,205.101 "/>
<g id="g12692">
	<path id="path6147" d="M548.75,241.611h-34.258l-4.507,9.918h-13.073l28.398-56.795h12.62l28.398,56.795h-13.071L548.75,241.611z
		 M543.34,230.795l-11.721-24.34l-11.72,24.34H543.34z"/>
</g>
<path id="path12700" d="M615.463,170.383h-34.255l-4.506,9.917h-13.073l28.398-56.795h12.621l28.398,56.795h-13.072L615.463,170.383
	z M610.057,159.564l-11.723-24.34l-11.72,24.34H610.057L610.057,159.564z"/>
<polygon id="polygon12722" points="624.037,276.309 624.037,265.941 572.651,265.941 572.651,322.738 624.037,322.738 
	624.037,311.92 584.822,311.92 584.822,298.848 622.686,298.848 622.686,288.027 584.822,288.027 584.822,276.309 "/>
<path id="path12766" d="M582.102,99.023h26.146c4.057,0,6.309-2.705,6.309-6.311c0-4.058-2.254-6.761-6.309-6.761h-26.146V99.023
	L582.102,99.023z M582.102,75.134h25.244c3.607,0,5.858-2.253,5.858-5.86c0-3.155-2.253-5.86-5.858-5.86h-25.244V75.134
	L582.102,75.134z M569.931,109.842V53.047h39.216c9.018,0,16.229,7.211,16.229,16.227c0,4.056-1.354,8.114-4.508,10.818
	c3.606,3.156,5.858,7.663,5.858,12.623c0,9.015-7.662,17.128-16.677,17.128H569.931L569.931,109.842z"/>
<path id="path12865" d="M573.269,338.35v56.66h11.738v-22.537h12.208l16.591,22.537h14.556l-17.218-22.85
	c8.114-0.902,13.931-8.184,13.931-16.75c0-9.467-8.045-17.061-17.062-17.061H573.269L573.269,338.35z M586.887,350.402l19.092,0.156
	c0,0,5.271,0.398,5.322,5.008c0.051,4.613-5.949,4.539-5.949,4.539h-18.467L586.887,350.402L586.887,350.402z"/>
</svg>
