<?xml version="1.0" encoding="UTF-8" standalone="no"?>
<!-- Created with Inkscape (http://www.inkscape.org/) -->

<svg
   xmlns:dc="http://purl.org/dc/elements/1.1/"
   xmlns:cc="http://creativecommons.org/ns#"
   xmlns:rdf="http://www.w3.org/1999/02/22-rdf-syntax-ns#"
   xmlns:svg="http://www.w3.org/2000/svg"
   xmlns="http://www.w3.org/2000/svg"
   xmlns:sodipodi="http://sodipodi.sourceforge.net/DTD/sodipodi-0.dtd"
   xmlns:inkscape="http://www.inkscape.org/namespaces/inkscape"
   id="svg2"
   version="1.1"
   inkscape:version="0.91 r13725"
   xml:space="preserve"
   width="250"
   height="56.982944"
   viewBox="0 0 250 56.982944"
   sodipodi:docname="logoMetra.svg"
   inkscape:export-filename="/home/alejandro/Documents/technomadic/bayer/Bayer_alejandro/Bayer_Sistema_Ganado/Prueba_Bayer/assets/img/logoMetra.png"
   inkscape:export-xdpi="90"
   inkscape:export-ydpi="90"><metadata
     id="metadata8"><rdf:RDF><cc:Work
         rdf:about=""><dc:format>image/svg+xml</dc:format><dc:type
           rdf:resource="http://purl.org/dc/dcmitype/StillImage" /><dc:title></dc:title></cc:Work></rdf:RDF></metadata><defs
     id="defs6" /><sodipodi:namedview
     pagecolor="#ffffff"
     bordercolor="#666666"
     borderopacity="1"
     objecttolerance="10"
     gridtolerance="10"
     guidetolerance="10"
     inkscape:pageopacity="0"
     inkscape:pageshadow="2"
     inkscape:window-width="1816"
     inkscape:window-height="994"
     id="namedview4"
     showgrid="false"
     fit-margin-top="0"
     fit-margin-left="0"
     fit-margin-right="0"
     fit-margin-bottom="0"
     borderlayer="false"
     inkscape:showpageshadow="true"
     showguides="true"
     inkscape:guide-bbox="true"
     inkscape:zoom="0.3631876"
     inkscape:cx="1035.3777"
     inkscape:cy="11.839017"
     inkscape:window-x="1420"
     inkscape:window-y="28"
     inkscape:window-maximized="0"
     inkscape:current-layer="layer2"><sodipodi:guide
       position="1749.1525,396.41598"
       orientation="0,1"
       id="guide4811" /><sodipodi:guide
       position="10.169475,274.38208"
       orientation="1,0"
       id="guide4831" /><sodipodi:guide
       position="393.22032,60.822789"
       orientation="0,1"
       id="guide4833" /><sodipodi:guide
       position="1157.6271,15.060079"
       orientation="0,1"
       id="guide4835" /></sodipodi:namedview><g
     inkscape:groupmode="layer"
     id="layer2"
     inkscape:label="Folleto Metra (alta) 1"
     style="display:inline"
     transform="translate(-305.08476,-1086.5093)"><path
       style="display:inline;fill:#0090c5;fill-opacity:1;fill-rule:evenodd;stroke:#0090c5;stroke-width:0.1372665px;stroke-linecap:butt;stroke-linejoin:miter;stroke-opacity:1"
       d="m 306.43946,1129.578 c 0,0 7.03976,-26.5918 10.16725,-38.6488 0.27827,-1.0727 1.81841,-1.6472 2.95558,-1.7176 0.95452,-0.059 2.31037,0.3801 2.63998,1.1239 5.34569,12.0577 12.80729,29.3911 12.80729,29.3911 0,0 8.2356,-19.598 12.26303,-28.6956 0.31724,-0.7167 1.76908,-1.523 2.84326,-1.5168 1.24424,0.01 3.04376,1.0143 3.27294,1.7952 3.89243,13.2637 9.8628,38.1043 9.8628,38.1043 l -7.06044,-0.1642 -7.06043,-27.5849 c 0,0 -7.20114,17.2974 -10.79819,25.6385 -0.42512,0.9859 -2.06054,2.2386 -3.22115,2.2492 -1.37405,0.013 -2.8856,-0.3755 -3.48673,-1.8449 -3.76062,-9.1924 -11.37932,-25.6883 -11.37932,-25.6883 l -7.23795,27.3946 z"
       id="path4142-2"
       inkscape:connector-curvature="0"
       sodipodi:nodetypes="csascsascccsssccc" /><path
       style="display:inline;fill:#0090c5;fill-opacity:1;fill-rule:evenodd;stroke:#0090c5;stroke-width:0.1372665px;stroke-linecap:butt;stroke-linejoin:miter;stroke-opacity:1"
       d="m 367.68993,1089.4533 34.4055,-0.013 0.10148,6.8704 -27.8506,-0.063 0,25.6145 27.98895,-0.2656 0,6.9479 -34.72098,-0.1144 z"
       id="path4144-7"
       inkscape:connector-curvature="0"
       sodipodi:nodetypes="ccccccccc" /><path
       style="display:inline;fill:#0090c5;fill-opacity:1;fill-rule:evenodd;stroke:#0090c5;stroke-width:0.1372665px;stroke-linecap:butt;stroke-linejoin:miter;stroke-opacity:1"
       d="m 379.33493,1105.7585 21.35839,-0.063 0.10148,5.8096 -21.37134,0.1015 z"
       id="path4146-0"
       inkscape:connector-curvature="0"
       sodipodi:nodetypes="ccccc" /><path
       style="display:inline;fill:#676767;fill-opacity:1;fill-rule:evenodd;stroke:#676767;stroke-width:0.1372665px;stroke-linecap:butt;stroke-linejoin:miter;stroke-opacity:1"
       d="m 405.50741,1091.4905 c 1.32962,-1.233 4.05146,-2.706 6.4793,-2.7027 3.03011,0 5.60035,3.1785 8.43672,2.4501 1.42443,-0.3658 1.8821,-2.3253 3.11968,-3.1198 1.0469,-0.672 2.27819,-1.0559 3.49793,-1.3007 1.33836,-0.2686 2.73304,-0.2924 4.09198,-0.1642 1.66586,0.1573 3.43389,0.3106 4.88901,1.1364 1.3828,0.7849 1.76803,3.046 3.30969,3.4352 2.41253,0.6092 4.62987,-2.0751 7.11022,-2.273 1.79532,-0.1433 3.67318,0.1324 5.34282,0.8082 0.93423,0.3782 2.21276,0.7781 2.46294,1.7545 0.35514,1.3862 -0.96642,2.7544 -1.86881,3.865 -0.90483,1.1137 -2.02101,2.266 -3.40939,2.6272 -2.24145,0.5829 -4.64202,-1.6462 -6.87228,-1.0218 -0.78027,0.2183 -1.5014,0.8314 -1.86915,1.5533 -1.00875,1.9814 -0.19703,4.4452 -0.43001,6.6564 -0.2375,2.2554 -0.48846,4.5192 -0.98532,6.732 -0.45137,2.0101 -1.58678,3.8625 -1.80617,5.9111 -0.21055,1.9659 0.82366,3.9617 0.49266,5.911 -0.28562,1.6817 -0.77257,3.5835 -2.08469,4.6732 -1.46222,1.2143 -3.64576,1.2739 -5.54577,1.3264 -1.69735,0.047 -3.64873,0.1023 -5.01255,-0.9095 -1.33382,-0.9893 -1.95419,-2.8035 -2.27293,-4.4333 -0.3975,-2.0325 0.75402,-3.4466 -0.0774,-7.8722 -0.61057,-3.2503 -1.97902,-6.1941 -2.47413,-9.3942 -0.44298,-2.8617 0.19193,-5.4071 -0.43002,-8.6765 -0.18199,-0.9566 -1.5686,-1.2962 -2.52767,-1.4648 -2.07174,-0.3645 -4.15846,1.5671 -6.21172,1.1106 -0.83905,-0.1866 -1.05598,-0.5044 -2.10708,-1.4867 -0.46641,-0.4362 -1.26593,-1.1575 -2.18616,-2.5627 -0.43527,-0.665 -1.06229,-2.5681 -1.06229,-2.5681 z"
       id="path4148-9"
       inkscape:connector-curvature="0"
       sodipodi:nodetypes="csaaaaaaaaaaaaaaaaaaaassasaasscc" /><path
       style="display:inline;fill:#6bc200;fill-opacity:1;fill-rule:evenodd;stroke:#6bc200;stroke-width:0.1372665px;stroke-linecap:butt;stroke-linejoin:miter;stroke-opacity:1"
       d="m 457.1011,1128.4305 0,-39.0786 c 0,0 21.13411,-0.2261 30.70463,0.1642 2.16343,0.088 4.28251,1.0846 6.07528,2.2987 1.47551,0.9991 2.66971,2.4284 3.61231,3.9407 0.71517,1.1472 1.18684,2.4563 1.47761,3.7765 0.38908,1.7672 0.46816,3.6144 0.32838,5.4184 -0.13866,1.7876 -0.39119,3.6297 -1.14941,5.2543 -0.64346,1.379 -1.70786,2.544 -2.79148,3.6123 -0.77957,0.7684 -1.76175,1.2999 -2.62704,1.9703 -0.55423,0.4292 -1.64207,1.3135 -1.64207,1.3135 l 11.82212,11.6579 -9.19495,0 -10.67277,-11.3296 -14.12085,0.1642 0,-5.7468 c 0,0 11.77947,0.5604 17.56897,-0.3284 0.95873,-0.1472 1.94159,-0.3539 2.79149,-0.821 1.01995,-0.5604 2.05705,-1.2844 2.62703,-2.2987 0.62597,-1.1139 0.61056,-2.4996 0.65675,-3.7765 0.0399,-1.0993 -0.0339,-2.224 -0.32839,-3.2839 -0.30802,-1.1087 -0.71939,-2.2543 -1.47762,-3.1197 -0.73023,-0.8337 -1.73444,-1.4727 -2.79147,-1.8062 -1.41009,-0.4452 -4.43331,-0.1642 -4.43331,-0.1642 l -19.37511,0.1642 0,32.0182 z"
       id="path4150-3"
       inkscape:connector-curvature="0"
       sodipodi:nodetypes="ccsaaaaaaaccccccaaaaaaacccc" /><path
       style="display:inline;fill:#6bc200;fill-opacity:1;fill-rule:evenodd;stroke:#6bc200;stroke-width:0.1372665px;stroke-linecap:butt;stroke-linejoin:miter;stroke-opacity:1"
       d="m 503.56856,1128.7589 c 0,0 15.84293,-25.8162 22.25312,-37.396 0.54583,-0.9859 1.83486,-2.1003 3.10919,-2.3139 0.8233,-0.1381 1.70155,0.2821 2.38734,0.7581 0.87439,0.6068 1.63017,1.9169 1.97028,2.5129 7.07283,12.3915 21.67387,36.2744 21.67387,36.2744 l -8.37402,0 -5.41849,-9.8518 -18.71835,-0.1642 3.61231,-5.5826 11.49374,0 -8.5382,-15.0046 -17.73318,30.7674 z"
       id="path4152-6"
       inkscape:connector-curvature="0"
       sodipodi:nodetypes="csaasccccccccc" /><text
       xml:space="preserve"
       style="font-style:normal;font-variant:normal;font-weight:500;font-stretch:normal;font-size:4.91600752px;line-height:125%;font-family:KacstLetter;-inkscape-font-specification:'KacstLetter Medium';letter-spacing:0px;word-spacing:0px;fill:#676767;fill-opacity:1;stroke:none;stroke-width:1px;stroke-linecap:butt;stroke-linejoin:miter;stroke-opacity:1"
       x="340.74393"
       y="1021.7281"
       id="text4837"
       sodipodi:linespacing="125%"
       transform="scale(0.89534909,1.1168828)"><tspan
         sodipodi:role="line"
         id="tspan4839"
         x="340.74393"
         y="1021.7281"
         style="font-style:normal;font-variant:normal;font-weight:bold;font-stretch:normal;font-size:7.23762751px;font-family:NanumBarunGothic;-inkscape-font-specification:'NanumBarunGothic Bold';fill:#676767;fill-opacity:1"> Programa Bayer de Metafilaxia y Tratamiento contra el Complejo Respiratorio Bovino</tspan></text>
</g></svg>